<?xml version="1.0" encoding="utf-8"?>
<svg width="80px" height="80px" viewBox="0 0 20 20" fill="none" xmlns="http://www.w3.org/2000/svg">
  <path fill="#ff5382" fill-rule="evenodd" d="M 10.028 4.226 C 9.121 2.892 7.668 2 5.964 2 C 3.071 2 0.901 4.571 0.901 7.515 C 0.901 10.021 2.591 12.358 4.283 14.105 C 6.019 15.898 7.979 17.293 8.919 17.922 C 9.612 18.386 10.509 18.349 11.164 17.852 C 12.084 17.152 14.033 15.602 15.762 13.767 C 16.626 12.85 17.458 11.837 18.08 10.802 C 18.693 9.782 19.155 8.652 19.156 7.519 L 19.156 7.515 C 19.156 4.571 16.986 2 14.092 2 C 12.388 2 10.935 2.892 10.028 4.226 Z" style=""/>
  <path fill="#323232" fill-rule="evenodd" d="M 5.964 4 C 4.37 4 2.901 5.472 2.901 7.515 C 2.901 9.185 4.082 11.023 5.72 12.715 C 7.29 14.335 9.085 15.625 9.99 16.232 C 10.888 15.547 12.71 14.091 14.306 12.396 C 15.116 11.536 15.845 10.64 16.366 9.772 C 16.895 8.892 17.156 8.129 17.156 7.515 C 17.156 5.472 15.688 4 14.092 4 C 12.496 4 11.028 5.472 11.028 7.515 C 11.028 8.285 10.195 8.766 9.528 8.381 C 9.219 8.202 9.028 7.872 9.028 7.515 C 9.028 5.472 7.56 4 5.964 4 Z M 10.028 4.226 C 9.121 2.892 7.668 2 5.964 2 C 3.071 2 0.901 4.571 0.901 7.515 C 0.901 10.021 2.591 12.358 4.283 14.105 C 6.019 15.898 7.979 17.293 8.919 17.922 C 9.612 18.386 10.509 18.349 11.164 17.852 C 12.084 17.152 14.033 15.602 15.762 13.767 C 16.626 12.85 17.458 11.837 18.08 10.802 C 18.693 9.782 19.155 8.652 19.156 7.519 L 19.156 7.515 C 19.156 4.571 16.986 2 14.092 2 C 12.388 2 10.935 2.892 10.028 4.226 L 10.028 4.226 Z" style="paint-order: stroke; "/>
</svg>